<?xml version="1.0" encoding="utf-8"?>
<!-- Generator: Adobe Illustrator 16.0.0, SVG Export Plug-In . SVG Version: 6.00 Build 0)  -->
<!DOCTYPE svg PUBLIC "-//W3C//DTD SVG 1.1//EN" "http://www.w3.org/Graphics/SVG/1.1/DTD/svg11.dtd">
<svg version="1.1" xmlns="http://www.w3.org/2000/svg" xmlns:xlink="http://www.w3.org/1999/xlink" x="0px" y="0px" width="36px"
	 height="45px" viewBox="0 0 36 45" enable-background="new 0 0 36 45" xml:space="preserve">
<g id="Calque_1">
	<path fill="#C6C6C6" stroke="#000000" stroke-miterlimit="10" d="M23.203,21.566c0,1.466-0.367,2.845-1.018,4.046
		c-1.443,2.652-7.475,18.342-7.475,18.342S8.675,28.263,7.238,25.612c-0.653-1.201-1.023-2.58-1.023-4.046
		c0-4.694,3.802-8.496,8.498-8.496C19.406,13.071,23.203,16.873,23.203,21.566z"/>
</g>
<g id="Calque_2">
	<path d="M35.932,16.05c0.431-3.813-1.256-6.4-2.901-7.828c0.108-0.253,0.253-0.817,0.333-1.106c0.135-0.483,0.02-0.978-0.269-1.343
		c0.148-0.766-0.313-1.531-1.078-1.743L17.769,0.056c-0.764-0.213-1.556,0.2-1.824,0.933c-0.856,0.322-0.935,1.034-1.182,1.919
		c-0.02,0.07-0.022,0.141-0.032,0.211C12.583,3.49,9.8,4.833,8.195,8.316c-2.074,4.509-0.59,15.674,0.308,20.19
		c0.107,0.564,0.525,1.02,1.08,1.176c14.806,4.127-2.121-0.594,14.107,3.934c1.129,0.313,1.682-0.602,2.506-1.572
		C29.606,28.047,35.412,20.647,35.932,16.05z"/>
	<g>
		
			<rect x="16.669" y="3.441" transform="matrix(0.9633 0.2686 -0.2686 0.9633 2.2304 -6.2793)" fill="#FFFFCC" width="14.791" height="3.142"/>
	</g>
	<g>
		<path fill="#FF9900" d="M25.043,31.064c-0.586,0.693-0.946,1.094-0.946,1.094L9.988,28.225c0,0-0.101-0.531-0.245-1.426
			C9.131,23.055,7.721,12.963,9.569,8.948c2.286-4.966,6.95-4.407,6.95-4.407l14.248,3.972c0,0,4.274,1.934,3.664,7.367
			C33.933,20.272,27.505,28.178,25.043,31.064z"/>
	</g>
	<g>
		<path fill="#FFCC00" d="M30.767,8.513l-7.126-1.986l-6.598,23.665l7.054,1.967c0,0,0.36-0.4,0.946-1.094
			c2.462-2.887,8.89-10.792,9.388-15.185C35.041,10.446,30.767,8.513,30.767,8.513z"/>
	</g>
	<g>
		<path fill="#FFFFFF" d="M31.063,10.587c1.883,7-0.442,10.743-6.926,16.839c5.501-6.426,7.932-9.819,4.463-17.5L31.063,10.587z"/>
	</g>
	<polygon points="19.5,19.916 19.41,28.704 12.454,33.013 5.587,28.532 5.677,19.745 12.632,15.436 	"/>
	<polygon fill="#FF9900" points="6.462,27.992 6.541,20.308 12.622,16.542 18.625,20.458 18.547,28.14 12.465,31.907 	"/>
	<polygon points="13.413,7.468 13.324,16.256 6.368,20.565 -0.5,16.085 -0.411,7.297 6.546,2.988 	"/>
	<polygon fill="#FFCC00" points="0.375,15.543 0.454,7.86 6.535,4.094 12.538,8.01 12.46,15.692 6.378,19.459 	"/>
</g>
</svg>
